<svg width="111" height="24" viewBox="0 0 111 24" fill="none" xmlns="http://www.w3.org/2000/svg">
<path d="M13.5338 12.128H11.1701V8.969H13.5338C13.6255 8.969 13.7285 8.97333 13.843 8.982C13.9576 8.98633 14.0629 9.0015 14.1591 9.0275C14.434 9.0925 14.6493 9.20733 14.805 9.372C14.9654 9.53667 15.0776 9.72517 15.1417 9.9375C15.2104 10.1455 15.2448 10.3492 15.2448 10.5485C15.2448 10.7478 15.2104 10.9515 15.1417 11.1595C15.0776 11.3675 14.9654 11.5538 14.805 11.7185C14.6493 11.8832 14.434 11.998 14.1591 12.063C14.0629 12.089 13.9576 12.1063 13.843 12.115C13.7285 12.1237 13.6255 12.128 13.5338 12.128Z" fill="white"/>
<path fill-rule="evenodd" clip-rule="evenodd" d="M25.371 0H0V24H25.371V0ZM9.51412 7.5V16.86H11.1701V13.5905H13.6025C13.6942 13.5905 13.8156 13.5862 13.9667 13.5775C14.1225 13.5688 14.2645 13.5558 14.3927 13.5385C14.9608 13.4562 15.4303 13.2763 15.8014 12.999C16.177 12.7217 16.4564 12.3728 16.6397 11.9525C16.8229 11.5278 16.9145 11.0598 16.9145 10.5485C16.9145 10.0328 16.8229 9.56483 16.6397 9.1445C16.461 8.71983 16.1839 8.36883 15.8082 8.0915C15.4372 7.81417 14.9654 7.63433 14.3927 7.552C14.2645 7.53033 14.1248 7.51733 13.9736 7.513C13.8224 7.50433 13.6987 7.5 13.6025 7.5H9.51412Z" fill="white"/>
<path d="M70.6185 12.128H68.2548V8.969H70.6185C70.7102 8.969 70.8132 8.97333 70.9278 8.982C71.0423 8.98633 71.1476 9.0015 71.2438 9.0275C71.5187 9.0925 71.734 9.20733 71.8897 9.372C72.0501 9.53667 72.1623 9.72517 72.2264 9.9375C72.2951 10.1455 72.3295 10.3492 72.3295 10.5485C72.3295 10.7478 72.2951 10.9515 72.2264 11.1595C72.1623 11.3675 72.0501 11.5538 71.8897 11.7185C71.734 11.8832 71.5187 11.998 71.2438 12.063C71.1476 12.089 71.0423 12.1063 70.9278 12.115C70.8132 12.1237 70.7102 12.128 70.6185 12.128Z" fill="white"/>
<path fill-rule="evenodd" clip-rule="evenodd" d="M82.4557 0H57.0847V24H82.4557V0ZM66.5988 7.5V16.86H68.2548V13.5905H70.6873C70.7789 13.5905 70.9003 13.5862 71.0514 13.5775C71.2072 13.5688 71.3492 13.5558 71.4775 13.5385C72.0455 13.4562 72.515 13.2763 72.8861 12.999C73.2617 12.7217 73.5411 12.3728 73.7244 11.9525C73.9076 11.5278 73.9992 11.0598 73.9992 10.5485C73.9992 10.0328 73.9076 9.56483 73.7244 9.1445C73.5457 8.71983 73.2686 8.36883 72.8929 8.0915C72.5219 7.81417 72.0501 7.63433 71.4775 7.552C71.3492 7.53033 71.2095 7.51733 71.0583 7.513C70.9071 7.50433 70.7835 7.5 70.6873 7.5H66.5988Z" fill="white"/>
<path fill-rule="evenodd" clip-rule="evenodd" d="M53.9133 0H28.5424V24H53.9133V0ZM40.1707 7.5V16.86H41.8267V7.5H40.1707Z" fill="white"/>
<path fill-rule="evenodd" clip-rule="evenodd" d="M110.998 0H85.6271V24H110.998V0ZM95.8811 7.5V16.86H101.907V15.391H97.5371V7.5H95.8811Z" fill="white"/>
</svg>
