<svg width="142" height="38" viewBox="0 0 142 38" fill="none" xmlns="http://www.w3.org/2000/svg">
<path d="M48.4889 19.7048C48.4889 18.6505 49.1184 17.916 50.0804 17.916C51.0424 17.916 51.6718 18.6505 51.6718 19.7048C51.6718 20.7473 51.0424 21.4936 50.0804 21.4936C49.1184 21.4936 48.4889 20.7473 48.4889 19.7048Z" fill="#0C0C0C"/>
<path d="M56.6247 17.8691C55.7103 17.8691 55.0927 18.5799 55.0927 19.5513C55.0927 20.5346 55.7221 21.269 56.6247 21.269C57.6224 21.269 58.2875 20.5227 58.2875 19.5513C58.2875 18.5917 57.6224 17.8691 56.6247 17.8691Z" fill="#0C0C0C"/>
<path d="M61.9261 19.7048C61.9261 18.6505 62.5556 17.916 63.5176 17.916C64.4796 17.916 65.1091 18.6505 65.1091 19.7048C65.1091 20.7473 64.4796 21.4936 63.5176 21.4936C62.5556 21.4936 61.9261 20.7473 61.9261 19.7048Z" fill="#0C0C0C"/>
<path d="M71.6046 19.7165C71.6046 18.6622 72.246 17.9277 73.2554 17.9277C74.265 17.9277 74.8706 18.6741 74.8706 19.7165C74.8706 20.759 74.265 21.4935 73.2554 21.4935C72.246 21.4935 71.6046 20.7708 71.6046 19.7165Z" fill="#0C0C0C"/>
<path fill-rule="evenodd" clip-rule="evenodd" d="M71 32.0984C91.1795 32.0984 107.538 26.3728 107.538 19.3099C107.538 12.2471 91.1795 6.52148 71 6.52148C50.8204 6.52148 34.4615 12.2471 34.4615 19.3099C34.4615 26.3728 50.8204 32.0984 71 32.0984ZM46.1413 22.6428V13.8292H44.6923V22.6428H46.1413ZM47.0281 19.7049C47.0281 21.5056 48.2395 22.785 50.0804 22.785C51.9213 22.785 53.1327 21.5056 53.1327 19.7049C53.1327 17.9043 51.9213 16.6249 50.0804 16.6249C48.2395 16.6249 47.0281 17.9043 47.0281 19.7049ZM56.3754 22.5244C54.7245 22.5244 53.62 21.2924 53.62 19.5865C53.62 17.8688 54.7483 16.6012 56.4229 16.6012C57.2899 16.6012 58.0262 16.9685 58.3825 17.5845L58.4656 16.7907H59.7483V22.3467C59.7483 24.2776 58.5369 25.5215 56.6367 25.5215C55.0214 25.5215 53.8456 24.5264 53.6556 22.9982H55.1165C55.1996 23.7682 55.8172 24.2066 56.7198 24.2066C57.7293 24.2066 58.335 23.5668 58.335 22.6073V21.6122C57.9668 22.1808 57.2305 22.5244 56.3754 22.5244ZM60.4653 19.7049C60.4653 21.5056 61.6768 22.785 63.5177 22.785C65.3585 22.785 66.5699 21.5056 66.5699 19.7049C66.5699 17.9043 65.3585 16.6249 63.5177 16.6249C61.6768 16.6249 60.4653 17.9043 60.4653 19.7049ZM69.005 14.7295C69.005 15.2152 68.6131 15.5943 68.138 15.5943C67.6511 15.5943 67.2829 15.2152 67.2829 14.7295C67.2829 14.2556 67.6511 13.8765 68.138 13.8765C68.6131 13.8765 69.005 14.2556 69.005 14.7295ZM68.8625 16.7907V22.6428H67.4136V16.7907H68.8625ZM70.1319 25.3556H71.5452V21.8373C71.9134 22.4414 72.7091 22.7968 73.588 22.7968C75.322 22.7968 76.3552 21.4701 76.3315 19.6457C76.2958 17.8095 75.2388 16.613 73.5761 16.613C72.6854 16.613 71.8778 17.004 71.5215 17.6792L71.4383 16.7907H70.1319V25.3556ZM79.0509 22.7968C77.6495 22.7968 76.7469 22.0505 76.6994 20.8896H78.0177C78.0177 21.399 78.3858 21.6951 79.0272 21.6951C79.5617 21.6951 80.0011 21.4819 80.0011 21.0199C80.0011 20.6882 79.7635 20.5105 79.3835 20.4039L78.3621 20.1432C77.2338 19.8471 76.7944 19.2192 76.7944 18.4611C76.7944 17.3475 77.7326 16.613 78.9916 16.613C80.2623 16.613 81.1293 17.3475 81.1769 18.5085H79.8586C79.8586 17.9991 79.5022 17.6911 78.9559 17.6911C78.4334 17.6911 78.1127 17.9754 78.1127 18.3782C78.1127 18.7573 78.4096 18.9112 78.849 19.0297L79.8823 19.2785C80.8443 19.5154 81.3669 20.084 81.3669 20.9251C81.3669 22.0623 80.4286 22.7968 79.0509 22.7968ZM84.3725 22.7968C85.1679 22.7968 85.9279 22.4296 86.2725 21.8847L86.3677 22.6428H87.7215V16.7907H86.2725V19.859C86.2725 20.9133 85.8686 21.5056 84.9186 21.5056C84.1825 21.5056 83.6717 21.1502 83.6717 19.9419V16.7907H82.2226V20.4513C82.2226 21.8491 82.9827 22.7968 84.3725 22.7968ZM90.4494 19.2785V22.6428H89.0004V16.7907H90.3304L90.4018 17.4542C90.7463 16.9329 91.364 16.613 92.0525 16.613C93.0263 16.613 93.6678 17.0395 93.9885 17.7266C94.2737 17.0395 94.9745 16.613 95.8652 16.613C97.2904 16.613 98.0383 17.466 98.0383 18.8165V22.6428H96.6368V19.1482C96.6368 18.3189 96.1859 17.8806 95.4852 17.8806C94.7961 17.8806 94.2499 18.3308 94.2499 19.2903V22.6428H92.8363V19.1482C92.8363 18.3189 92.3854 17.8806 91.6963 17.8806C91.0078 17.8806 90.4494 18.3308 90.4494 19.2785Z" fill="#0C0C0C"/>
</svg>
