<svg width="142" height="38" viewBox="0 0 142 38" fill="none" xmlns="http://www.w3.org/2000/svg">
<g clip-path="url(#clip0_307_3240)">
<path fill-rule="evenodd" clip-rule="evenodd" d="M31.4167 15.1348C30.5534 14.5579 29.5383 14.25 28.5 14.25V9C30.5767 9 32.6068 9.61581 34.3335 10.7696C36.0602 11.9233 37.406 13.5632 38.2007 15.4818C38.9954 17.4004 39.2034 19.5117 38.7982 21.5484C38.3931 23.5852 37.3931 25.4562 35.9246 26.9246C34.4562 28.3931 32.5852 29.3931 30.5484 29.7982C28.5117 30.2034 26.4004 29.9954 24.4818 29.2007C22.5632 28.406 20.9233 27.0602 19.7696 25.3335C18.6158 23.6068 18 21.5767 18 19.5H23.25C23.25 20.5383 23.5579 21.5534 24.1348 22.4167C24.7117 23.2801 25.5316 23.953 26.4909 24.3504C27.4502 24.7477 28.5058 24.8517 29.5242 24.6491C30.5426 24.4466 31.4781 23.9465 32.2123 23.2123C32.9465 22.4781 33.4466 21.5426 33.6491 20.5242C33.8517 19.5058 33.7477 18.4502 33.3504 17.4909C32.953 16.5316 32.2801 15.7117 31.4167 15.1348Z" fill="#0C0C0C"/>
<path fill-rule="evenodd" clip-rule="evenodd" d="M23 9C23 9.72227 22.8707 10.4375 22.6194 11.1048C22.3681 11.7721 21.9998 12.3784 21.5355 12.8891C21.0712 13.3998 20.52 13.8049 19.9134 14.0813C19.3068 14.3577 18.6566 14.5 18 14.5L18 20C19.3132 20 20.6136 19.7155 21.8268 19.1627C23.0401 18.6099 24.1425 17.7996 25.071 16.7782C25.9996 15.7568 26.7362 14.5441 27.2388 13.2095C27.7413 11.8749 28 10.4445 28 9L23 9Z" fill="#0C0C0C"/>
<path d="M84 17H81V25H84V17Z" fill="#0C0C0C"/>
<path d="M81.4185 15.5714C81.7092 15.8571 82.0726 16 82.5089 16C82.9452 16 83.3029 15.8571 83.5815 15.5714C83.8607 15.2738 84 14.9167 84 14.5C84 14.0714 83.8607 13.7143 83.5815 13.4286C83.3029 13.1429 82.9452 13 82.5089 13C82.0726 13 81.7092 13.1429 81.4185 13.4286C81.1393 13.7143 81 14.0714 81 14.5C81 14.9167 81.1393 15.2738 81.4185 15.5714Z" fill="#0C0C0C"/>
<path d="M45 25V13H47.6723V22.6544H53V25H45Z" fill="#0C0C0C"/>
<path fill-rule="evenodd" clip-rule="evenodd" d="M57.5 24C56.6541 24 55.8872 23.8268 55.1992 23.4803C54.5225 23.1234 53.9868 22.6404 53.5921 22.0315C53.1974 21.4226 53 20.7402 53 19.9843C53 19.2284 53.1974 18.5512 53.5921 17.9528C53.9868 17.3543 54.5225 16.8819 55.1992 16.5355C55.8759 16.1785 56.6429 16 57.5 16C58.3571 16 59.124 16.1733 59.8007 16.5197C60.4774 16.8661 61.0132 17.3439 61.4079 17.9528C61.8026 18.5512 62 19.2284 62 19.9843C62 20.7402 61.8026 21.4226 61.4079 22.0315C61.0132 22.6404 60.4774 23.1234 59.8007 23.4803C59.124 23.8268 58.3571 24 57.5 24ZM57.5 21.811C57.8722 21.811 58.1992 21.7376 58.4812 21.5906C58.7631 21.4331 58.9774 21.2179 59.124 20.9449C59.2819 20.6615 59.3609 20.3412 59.3609 19.9843C59.3609 19.6273 59.2819 19.3176 59.124 19.0551C58.9661 18.7822 58.7462 18.5722 58.4642 18.4252C58.1936 18.2677 57.8722 18.189 57.5 18.189C57.1391 18.189 56.8177 18.2677 56.5357 18.4252C56.2538 18.5722 56.0338 18.7822 55.8759 19.0551C55.718 19.3281 55.6391 19.6431 55.6391 20C55.6391 20.3465 55.718 20.6615 55.8759 20.9449C56.0338 21.2179 56.2538 21.4331 56.5357 21.5906C56.8177 21.7376 57.1391 21.811 57.5 21.811Z" fill="#0C0C0C"/>
<path fill-rule="evenodd" clip-rule="evenodd" d="M63.5275 27.5294C64.1679 27.8431 64.908 28 65.7479 28C66.5668 28 67.2965 27.8263 67.9368 27.479C68.5773 27.1316 69.0811 26.6499 69.4486 26.0337C69.816 25.4174 70 24.6891 70 23.8487V16.1681H67.6376V16.7169C67.4619 16.5591 67.2624 16.4266 67.0392 16.3194C66.6298 16.1065 66.1626 16 65.6377 16C64.9343 16 64.3096 16.1793 63.7637 16.5378C63.2177 16.8852 62.7874 17.367 62.4724 17.9832C62.1574 18.5883 62 19.2717 62 20.0337C62 20.7844 62.1574 21.4678 62.4724 22.0841C62.7874 22.7003 63.2177 23.1877 63.7637 23.5462C64.3096 23.9048 64.9343 24.0841 65.6377 24.0841C66.1521 24.0841 66.6193 23.9776 67.0392 23.7647C67.2426 23.6616 67.4264 23.5401 67.5904 23.4001V23.916C67.5904 24.4874 67.4172 24.93 67.0707 25.2437C66.7348 25.5575 66.2676 25.7143 65.6692 25.7143C65.1863 25.7143 64.7716 25.6247 64.4251 25.4454C64.0892 25.2662 63.7847 25.0028 63.5117 24.6555L62.0315 26.2353C62.3989 26.7955 62.8976 27.2269 63.5275 27.5294ZM66.9605 21.563C66.719 21.7199 66.4303 21.7983 66.0944 21.7983C65.7584 21.7983 65.4644 21.7199 65.2125 21.563C64.971 21.4062 64.7821 21.1933 64.6456 20.9244C64.5091 20.6443 64.4409 20.3473 64.4409 20.0337C64.4409 19.6975 64.5091 19.395 64.6456 19.1261C64.7821 18.8572 64.9763 18.6443 65.2282 18.4874C65.4802 18.3305 65.7689 18.2521 66.0944 18.2521C66.4303 18.2521 66.719 18.3305 66.9605 18.4874C67.2124 18.6443 67.4014 18.8572 67.5274 19.1261C67.6639 19.395 67.7321 19.6975 67.7321 20.0337C67.7321 20.3698 67.6639 20.6723 67.5274 20.9412C67.4014 21.1989 67.2124 21.4062 66.9605 21.563Z" fill="#0C0C0C"/>
<path fill-rule="evenodd" clip-rule="evenodd" d="M76.5003 24C75.6542 24 74.8871 23.8268 74.1995 23.4803C73.5225 23.1234 72.9869 22.6404 72.5921 22.0315C72.1974 21.4226 72 20.7402 72 19.9843C72 19.2284 72.1974 18.5512 72.5921 17.9528C72.9869 17.3543 73.5225 16.8819 74.1995 16.5355C74.8759 16.1785 75.643 16 76.5003 16C77.357 16 78.1241 16.1733 78.8005 16.5197C79.4775 16.8661 80.0131 17.3439 80.4079 17.9528C80.8026 18.5512 81 19.2284 81 19.9843C81 20.7402 80.8026 21.4226 80.4079 22.0315C80.0131 22.6404 79.4775 23.1234 78.8005 23.4803C78.1241 23.8268 77.357 24 76.5003 24ZM76.5003 21.811C76.8721 21.811 77.1991 21.7376 77.4813 21.5906C77.763 21.4331 77.9774 21.2179 78.1241 20.9449C78.282 20.6615 78.361 20.3412 78.361 19.9843C78.361 19.6273 78.282 19.3176 78.1241 19.0551C77.9662 18.7822 77.7464 18.5722 77.4642 18.4252C77.1938 18.2677 76.8721 18.189 76.5003 18.189C76.1391 18.189 75.8174 18.2677 75.5358 18.4252C75.2536 18.5722 75.0338 18.7822 74.8759 19.0551C74.718 19.3281 74.639 19.6431 74.639 20C74.639 20.3465 74.718 20.6615 74.8759 20.9449C75.0338 21.2179 75.2536 21.4331 75.5358 21.5906C75.8174 21.7376 76.1391 21.811 76.5003 21.811Z" fill="#0C0C0C"/>
<path fill-rule="evenodd" clip-rule="evenodd" d="M89.8741 24.6619C89.306 24.6619 88.7834 24.5535 88.3074 24.3367C88.0571 24.2226 87.8309 24.0863 87.6289 23.9279V28H85V16.1712H87.6635V16.7454C87.8567 16.59 88.0714 16.4556 88.3074 16.3424C88.7834 16.1141 89.306 16 89.8741 16C90.675 16 91.3832 16.1883 91.998 16.565C92.6249 16.9415 93.1124 17.4551 93.4604 18.1056C93.8205 18.7561 94 19.4979 94 20.3309C94 21.1641 93.8205 21.9059 93.4604 22.5564C93.1124 23.2069 92.6249 23.7204 91.998 24.097C91.3832 24.4736 90.675 24.6619 89.8741 24.6619ZM89.3872 22.2996C89.7698 22.2996 90.1008 22.214 90.3791 22.0428C90.6695 21.8716 90.8957 21.6376 91.0582 21.341C91.2207 21.0442 91.3019 20.7076 91.3019 20.3309C91.3019 19.9429 91.2207 19.6006 91.0582 19.3039C90.8957 19.0072 90.6695 18.7789 90.3791 18.6191C90.1008 18.4479 89.7759 18.3624 89.4042 18.3624C89.0331 18.3624 88.7021 18.4479 88.4123 18.6191C88.1334 18.7789 87.9133 19.0072 87.7508 19.3039C87.5883 19.6006 87.507 19.9429 87.507 20.3309C87.507 20.7076 87.5823 21.0442 87.7332 21.341C87.8957 21.6376 88.1219 21.8716 88.4123 22.0428C88.7021 22.214 89.0271 22.2996 89.3872 22.2996Z" fill="#0C0C0C"/>
<path d="M96.2305 24.8067C96.6863 24.9356 97.1473 25 97.614 25C98.6016 25 99.383 24.7539 99.9584 24.2617C100.544 23.7696 100.837 23.1075 100.837 22.2754C100.837 21.7364 100.745 21.3027 100.561 20.9746C100.376 20.6348 100.138 20.3653 99.8445 20.166C99.5513 19.9668 99.2418 19.8086 98.9163 19.6914C98.5909 19.5742 98.2813 19.4746 97.9887 19.3926C97.6956 19.3105 97.4569 19.2168 97.2721 19.1113C97.0878 19.0058 96.9954 18.8652 96.9954 18.6894C96.9954 18.5254 97.0662 18.4023 97.2069 18.3203C97.348 18.2266 97.5595 18.1797 97.8419 18.1797C98.135 18.1797 98.4333 18.2441 98.7372 18.3731C99.0518 18.5019 99.3342 18.7246 99.5837 19.041L101 17.4942C100.642 17.0019 100.176 16.6328 99.6001 16.3867C99.0359 16.1289 98.4173 16 97.7443 16C97.1042 16 96.5452 16.1172 96.0678 16.3515C95.5898 16.5859 95.2207 16.9082 94.9605 17.3183C94.7002 17.7168 94.5698 18.1914 94.5698 18.7422C94.5698 19.2578 94.6622 19.6856 94.8465 20.0254C95.0308 20.3535 95.27 20.6114 95.5626 20.7988C95.8557 20.9863 96.1653 21.1328 96.4908 21.2383C96.8162 21.3437 97.1258 21.4434 97.4189 21.5371C97.7115 21.6192 97.9507 21.7188 98.135 21.836C98.3306 21.9414 98.4281 22.0996 98.4281 22.3106C98.4281 22.4746 98.3465 22.6035 98.1838 22.6973C98.0318 22.791 97.8095 22.8379 97.5164 22.8379C97.0929 22.8379 96.7023 22.7559 96.3445 22.5918C95.9861 22.416 95.6766 22.1758 95.4163 21.8711L94 23.418C94.2716 23.7344 94.597 24.0157 94.9769 24.2617C95.3676 24.4961 95.7854 24.6777 96.2305 24.8067Z" fill="#0C0C0C"/>
<path d="M106.009 25C105.224 25 104.526 24.8551 103.917 24.5654C103.318 24.2649 102.85 23.8571 102.51 23.342C102.17 22.8162 102 22.2153 102 21.5392V17H104.69V21.507C104.69 21.7753 104.737 22.006 104.831 22.1992C104.936 22.3924 105.089 22.5426 105.288 22.6499C105.487 22.7572 105.727 22.8109 106.009 22.8109C106.407 22.8109 106.724 22.6982 106.958 22.4728C107.193 22.2367 107.31 21.9148 107.31 21.507V17H110V21.5231C110 22.2099 109.83 22.8162 109.49 23.342C109.15 23.8571 108.682 24.2649 108.083 24.5654C107.486 24.8551 106.794 25 106.009 25Z" fill="#0C0C0C"/>
<path d="M113.566 16.1613H111V24H113.566V19.4194C113.566 19.1506 113.622 18.9247 113.734 18.742C113.857 18.5592 114.02 18.4194 114.221 18.3226C114.422 18.215 114.651 18.1613 114.908 18.1613C115.277 18.1613 115.585 18.2742 115.831 18.5C116.088 18.7151 116.217 19.0215 116.217 19.4194V24H118.783V19.4194C118.783 19.1506 118.839 18.9247 118.951 18.742C119.074 18.5592 119.236 18.4194 119.437 18.3226C119.638 18.215 119.868 18.1613 120.125 18.1613C120.494 18.1613 120.802 18.2742 121.048 18.5C121.305 18.7151 121.433 19.0215 121.433 19.4194V24H124V19.1452C124 18.4893 123.855 17.9301 123.564 17.4678C123.284 16.9946 122.898 16.6344 122.406 16.3871C121.926 16.129 121.372 16 120.746 16C120.108 16 119.532 16.1344 119.018 16.4033C118.684 16.5745 118.392 16.7955 118.142 17.0663C117.908 16.7831 117.625 16.5513 117.29 16.371C116.843 16.1237 116.334 16 115.764 16C115.16 16 114.618 16.1237 114.137 16.371C113.928 16.4739 113.738 16.5971 113.566 16.7407V16.1613Z" fill="#0C0C0C"/>
</g>
<defs>
<clipPath id="clip0_307_3240">
<rect width="106" height="21" fill="white" transform="translate(18 9)"/>
</clipPath>
</defs>
</svg>
