<svg width="142" height="38" viewBox="0 0 142 38" fill="none" xmlns="http://www.w3.org/2000/svg">
<g clip-path="url(#clip0_307_3244)">
<path d="M25.994 29C31.5203 29 36 24.523 36 19V12C36 11.2044 35.6837 10.4413 35.1208 9.87868C34.5578 9.31607 33.7943 9 32.9982 9H26.4943V13.387C26.4943 14.388 26.5553 15.425 27.0806 16.277C27.4567 16.8876 27.9598 17.4102 28.5558 17.8094C29.1517 18.2086 29.8267 18.475 30.5347 18.5905L30.7263 18.6215C30.8053 18.6485 30.8739 18.6995 30.9225 18.7674C30.971 18.8352 30.9971 18.9166 30.9971 19C30.9971 19.0834 30.971 19.1648 30.9225 19.2326C30.8739 19.3005 30.8053 19.3515 30.7263 19.3785L30.5347 19.4095C29.5002 19.5784 28.5449 20.0678 27.8036 20.8086C27.0624 21.5493 26.5727 22.5041 26.4037 23.538L26.3727 23.7295C26.3457 23.8084 26.2947 23.877 26.2268 23.9255C26.1589 23.974 26.0775 24.0001 25.994 24.0001C25.9105 24.0001 25.8291 23.974 25.7612 23.9255C25.6933 23.877 25.6423 23.8084 25.6153 23.7295L25.5843 23.538C25.4686 22.8304 25.2021 22.1559 24.8026 21.5603C24.4032 20.9647 23.8803 20.4619 23.2694 20.086C22.4168 19.561 21.3792 19.5 20.3776 19.5H16C16.2617 24.7905 20.6358 29 25.994 29Z" fill="#0C0C0C"/>
<path d="M16 18.2432H20.387C21.388 18.2432 22.425 18.1839 23.277 17.6731C23.943 17.2738 24.5036 16.7283 24.914 16.0803C25.439 15.2514 25.5 14.2424 25.5 13.2684V9H19C18.2044 9 17.4413 9.30753 16.8787 9.85493C16.3161 10.4023 16 11.1448 16 11.9189V18.2432ZM39.2275 9.97297C39.2275 10.231 39.1221 10.4785 38.9346 10.661C38.7471 10.8434 38.4927 10.9459 38.2275 10.9459C37.9623 10.9459 37.7079 10.8434 37.5204 10.661C37.3329 10.4785 37.2275 10.231 37.2275 9.97297C37.2275 9.71492 37.3329 9.46745 37.5204 9.28498C37.7079 9.10251 37.9623 9 38.2275 9C38.4927 9 38.7471 9.10251 38.9346 9.28498C39.1221 9.46745 39.2275 9.71492 39.2275 9.97297ZM121.855 14.8884C124.651 14.8884 126 16.7882 126 18.9885V23.1212H123.075V19.4789C123.075 18.4816 122.7 17.6585 121.628 17.6585C120.555 17.6585 120.198 18.4816 120.198 19.4789V23.1208H117.272V19.4789C117.272 18.4816 116.915 17.6585 115.842 17.6585C114.77 17.6585 114.396 18.4816 114.396 19.4789V23.1208H111.47V18.9881C111.47 16.7877 112.819 14.8879 115.615 14.8879C117.143 14.8879 118.248 15.4737 118.752 16.4394C119.288 15.4737 120.458 14.8875 121.855 14.8875V14.8884ZM106.214 20.5881C107.156 20.5881 107.562 19.7489 107.562 18.7511V15.2046H110.488V19.0995C110.488 21.4268 109.09 23.3586 106.214 23.3586C103.337 23.3586 101.939 21.4273 101.939 19.0995V15.2046H104.865V18.7511C104.865 19.7484 105.271 20.5881 106.214 20.5881ZM97.6375 23.3742C95.801 23.3742 94.6145 22.7569 93.9155 21.5538L96.0285 20.3979C96.321 20.9043 96.7595 21.1578 97.491 21.1578C98.0925 21.1578 98.3685 20.952 98.3685 20.6985C98.3685 19.7329 94.078 20.7146 94.078 17.6434C94.078 16.1548 95.378 14.9517 97.5885 14.9517C99.5225 14.9517 100.579 15.8697 101.05 16.7565L98.9375 17.928C98.759 17.4532 98.206 17.1681 97.6535 17.1681C97.231 17.1681 97.0035 17.3423 97.0035 17.5797C97.0035 18.5614 101.294 17.659 101.294 20.6353C101.294 22.2976 99.62 23.3742 97.6375 23.3742ZM87.4165 26.7626H84.491V19.1471C84.491 16.7244 86.36 14.9672 88.9605 14.9672C91.496 14.9672 93.43 16.8514 93.43 19.1471C93.43 21.6803 91.707 23.3586 89.123 23.3586C88.5215 23.3586 87.9205 23.1845 87.4165 22.915V26.7626ZM88.9605 20.683C89.887 20.683 90.5045 19.9863 90.5045 19.1627C90.5045 18.324 89.887 17.6429 88.9605 17.6429C88.034 17.6429 87.4165 18.324 87.4165 19.1632C87.4165 19.9863 88.034 20.683 88.9605 20.683ZM81.5605 14.3659C80.6015 14.3659 79.8055 13.59 79.8055 12.6559C79.8055 11.7219 80.6015 10.9459 81.5605 10.9459C82.5195 10.9459 83.316 11.7219 83.316 12.6559C83.316 13.59 82.5195 14.3659 81.5605 14.3659ZM80.098 15.2046H83.0235V23.1212H80.098V15.2046ZM74.485 23.3586C71.9495 23.3586 70.0155 21.4589 70.0155 19.1471C70.0155 16.8514 71.9495 14.9517 74.485 14.9517C77.0205 14.9517 78.9545 16.8514 78.9545 19.1471C78.9545 21.4589 77.0205 23.3586 74.485 23.3586ZM74.485 20.683C75.4115 20.683 76.029 19.9863 76.029 19.1627C76.029 18.324 75.4115 17.6274 74.485 17.6274C73.5585 17.6274 72.941 18.324 72.941 19.1627C72.941 19.9863 73.5585 20.683 74.485 20.683ZM64.4915 27C62.4765 27 61.0135 26.1292 60.266 24.5773L62.6875 23.311C62.9475 23.8495 63.435 24.4036 64.4425 24.4036C65.4995 24.4036 66.198 23.7542 66.2795 22.6143C65.8895 22.9471 65.2715 23.2001 64.3455 23.2001C62.086 23.2001 60.2655 21.5061 60.2655 19.1311C60.2655 16.8358 62.2 14.9672 64.7355 14.9672C67.336 14.9672 69.205 16.7249 69.205 19.1471V22.2821C69.205 25.1319 67.173 27 64.4915 27ZM64.6865 20.5249C65.564 20.5249 66.2305 19.9386 66.2305 19.0678C66.2305 18.2131 65.5645 17.6429 64.6865 17.6429C63.825 17.6429 63.1425 18.2131 63.1425 19.0683C63.1425 19.9391 63.825 20.5244 64.6865 20.5244V20.5249ZM55.3035 23.3586C52.768 23.3586 50.8335 21.4589 50.8335 19.1471C50.8335 16.8514 52.768 14.9517 55.3035 14.9517C57.8385 14.9517 59.773 16.8514 59.773 19.1471C59.773 21.4589 57.839 23.3586 55.3035 23.3586ZM55.3035 20.683C56.23 20.683 56.8475 19.9863 56.8475 19.1627C56.8475 18.324 56.23 17.6274 55.3035 17.6274C54.377 17.6274 53.7595 18.324 53.7595 19.1627C53.7595 19.9863 54.377 20.683 55.3035 20.683ZM45.5065 12.4346V20.4295H50.35V23.1212H45.1C43.2475 23.1212 42.5 22.1711 42.5 20.6669V12.4346H45.5065Z" fill="#0C0C0C"/>
</g>
<defs>
<clipPath id="clip0_307_3244">
<rect width="110" height="20" fill="white" transform="translate(16 9)"/>
</clipPath>
</defs>
</svg>
