<svg width="142" height="38" viewBox="0 0 142 38" fill="none" xmlns="http://www.w3.org/2000/svg">
<g clip-path="url(#clip0_307_3167)">
<path d="M51.3652 24.2797H58.1238V22.244H53.7674V14.5762H51.3652V24.2797Z" fill="#0C0C0C"/>
<path d="M62.1281 22.9221C61.1645 22.9221 60.6624 22.0806 60.6624 20.8185C60.6624 19.5563 61.1645 18.7013 62.1281 18.7013C63.0917 18.7013 63.6074 19.5563 63.6074 20.8185C63.6074 22.0806 63.0917 22.9221 62.1281 22.9221ZM62.1417 24.4963C64.381 24.4963 65.8467 22.9085 65.8467 20.8185C65.8467 18.7285 64.381 17.1406 62.1417 17.1406C59.916 17.1406 58.4231 18.7285 58.4231 20.8185C58.4231 22.9085 59.916 24.4963 62.1417 24.4963Z" fill="#0C0C0C"/>
<path d="M69.7226 26.6822C70.7541 26.6822 71.6633 26.4515 72.2741 25.9086C72.8305 25.4065 73.1969 24.6465 73.1969 23.6015V17.3315H71.0798V18.0779H71.0526C70.6455 17.4944 70.0212 17.1279 69.0983 17.1279C67.3748 17.1279 66.1805 18.5665 66.1805 20.6022C66.1805 22.7329 67.6326 23.9001 69.1933 23.9001C70.0348 23.9001 70.5641 23.5608 70.9712 23.0994H71.0255V23.7915C71.0255 24.6329 70.6319 25.1215 69.6955 25.1215C68.9626 25.1215 68.5962 24.8094 68.4741 24.4429H66.3298C66.5469 25.8951 67.8091 26.6822 69.7226 26.6822ZM69.7091 22.2579C68.8812 22.2579 68.3383 21.5794 68.3383 20.5344C68.3383 19.4758 68.8812 18.7972 69.7091 18.7972C70.6319 18.7972 71.1205 19.5844 71.1205 20.5208C71.1205 21.4979 70.6726 22.2579 69.7091 22.2579Z" fill="#0C0C0C"/>
<path d="M77.5502 22.9221C76.5866 22.9221 76.0845 22.0806 76.0845 20.8185C76.0845 19.5563 76.5866 18.7013 77.5502 18.7013C78.5138 18.7013 79.0295 19.5563 79.0295 20.8185C79.0295 22.0806 78.5138 22.9221 77.5502 22.9221ZM77.5638 24.4963C79.8031 24.4963 81.2685 22.9085 81.2685 20.8185C81.2685 18.7285 79.8031 17.1406 77.5638 17.1406C75.3381 17.1406 73.8452 18.7285 73.8452 20.8185C73.8452 22.9085 75.3381 24.4963 77.5638 24.4963Z" fill="#0C0C0C"/>
<path d="M81.9148 24.2797H84.1269V17.3312H81.9148V24.2797ZM81.9148 16.3676H84.1269V14.5762H81.9148V16.3676Z" fill="#0C0C0C"/>
<path d="M85.0865 26.5736H87.2987V23.5608H87.3258C87.7601 24.1444 88.398 24.4972 89.2937 24.4972C91.1123 24.4972 92.3201 23.0586 92.3201 20.8058C92.3201 18.7158 91.1937 17.1279 89.348 17.1279C88.398 17.1279 87.7194 17.5486 87.2444 18.1729H87.2037V17.3315H85.0865V26.5736ZM88.7237 22.7872C87.7737 22.7872 87.2308 22.0136 87.2308 20.8872C87.2308 19.7608 87.7194 18.9058 88.683 18.9058C89.633 18.9058 90.0808 19.6929 90.0808 20.8872C90.0808 22.0679 89.5651 22.7872 88.7237 22.7872Z" fill="#0C0C0C"/>
<path d="M95.9216 24.4972C97.7402 24.4972 99.0838 23.7101 99.0838 22.1901C99.0838 20.4122 97.6452 20.1001 96.4238 19.8965C95.5416 19.7336 94.7545 19.6658 94.7545 19.1772C94.7545 18.7429 95.1752 18.5394 95.7181 18.5394C96.3288 18.5394 96.7495 18.7294 96.8309 19.3536H98.8666C98.7581 17.9829 97.6995 17.1279 95.7316 17.1279C94.0895 17.1279 92.7324 17.8879 92.7324 19.3536C92.7324 20.9822 94.0216 21.3079 95.2295 21.5115C96.1524 21.6744 96.9938 21.7422 96.9938 22.3665C96.9938 22.8144 96.5731 23.0586 95.9081 23.0586C95.1752 23.0586 94.7138 22.7194 94.6324 22.0272H92.5424C92.6102 23.5608 93.8859 24.4972 95.9216 24.4972Z" fill="#0C0C0C"/>
<path d="M102.089 24.4832C103.052 24.4832 103.663 24.1032 104.165 23.4246H104.206V24.2796H106.323V17.3311H104.111V21.2125C104.111 22.0403 103.649 22.6103 102.889 22.6103C102.184 22.6103 101.844 22.1896 101.844 21.4296V17.3311H99.6459V21.8911C99.6459 23.4382 100.487 24.4832 102.089 24.4832Z" fill="#0C0C0C"/>
<path d="M107.285 24.2801H109.498V20.3851C109.498 19.5572 109.905 18.9736 110.597 18.9736C111.262 18.9736 111.574 19.4079 111.574 20.1544V24.2801H113.786V20.3851C113.786 19.5572 114.18 18.9736 114.885 18.9736C115.55 18.9736 115.863 19.4079 115.863 20.1544V24.2801H118.075V19.7608C118.075 18.2001 117.288 17.1279 115.713 17.1279C114.818 17.1279 114.071 17.5079 113.528 18.3494H113.501C113.148 17.6029 112.456 17.1279 111.547 17.1279C110.543 17.1279 109.878 17.6029 109.443 18.3222H109.403V17.3315H107.285V24.2801Z" fill="#0C0C0C"/>
<path d="M37.8687 9.02562L35.6446 8.42969L33.7704 15.4244L32.0784 9.10952L29.8543 9.70546L31.6825 16.5282L27.1289 11.9746L25.5008 13.6028L30.4955 18.5975L24.2754 16.9308L23.6794 19.1548L30.4757 20.9759C30.3979 20.6403 30.3567 20.2906 30.3567 19.9313C30.3567 17.388 32.4184 15.3263 34.9617 15.3263C37.505 15.3263 39.5667 17.388 39.5667 19.9313C39.5667 20.2883 39.5261 20.6358 39.4492 20.9694L45.6258 22.6244L46.2217 20.4004L39.3984 18.5721L45.6189 16.9053L45.023 14.6813L38.2 16.5095L42.7535 11.956L41.1254 10.3278L36.2 15.2533L37.8687 9.02562Z" fill="#0C0C0C"/>
<path d="M39.4432 20.9951C39.2525 21.8013 38.85 22.5255 38.2976 23.1057L42.7722 27.5804L44.4003 25.9523L39.4432 20.9951Z" fill="#0C0C0C"/>
<path d="M38.2524 23.1533C37.6933 23.7243 36.9869 24.1504 36.1946 24.3699L37.8229 30.4465L40.0469 29.8506L38.2524 23.1533Z" fill="#0C0C0C"/>
<path d="M36.1116 24.392C35.744 24.4865 35.3588 24.5367 34.9617 24.5367C34.5364 24.5367 34.1245 24.479 33.7335 24.3711L32.1038 30.4532L34.3278 31.0491L36.1116 24.392Z" fill="#0C0C0C"/>
<path d="M33.6548 24.3479C32.8747 24.1174 32.1808 23.6859 31.6332 23.1133L27.1476 27.5989L28.7757 29.227L33.6548 24.3479Z" fill="#0C0C0C"/>
<path d="M31.5958 23.0737C31.0576 22.4975 30.6655 21.783 30.4789 20.9893L24.2822 22.6497L24.8782 24.8737L31.5958 23.0737Z" fill="#0C0C0C"/>
</g>
<defs>
<clipPath id="clip0_307_3167">
<rect width="96" height="23" fill="white" transform="translate(23 8)"/>
</clipPath>
</defs>
</svg>
