<svg width="142" height="38" viewBox="0 0 142 38" fill="none" xmlns="http://www.w3.org/2000/svg">
<g clip-path="url(#clip0_307_3227)">
<path fill-rule="evenodd" clip-rule="evenodd" d="M30.4593 23.4C29.7115 23.4 28.9942 23.1103 28.4654 22.5945C27.9366 22.0788 27.6395 21.3793 27.6395 20.65V8H22V20.65C22 25.2062 25.7875 28.9 30.4593 28.9H36.6628V23.4H30.4593ZM47.3779 13.5C46.7114 13.5 46.0514 13.628 45.4356 13.8768C44.8198 14.1256 44.2602 14.4902 43.7889 14.9498C43.3176 15.4095 42.9438 15.9552 42.6887 16.5557C42.4336 17.1563 42.3023 17.8 42.3023 18.45C42.3023 19.1 42.4336 19.7437 42.6887 20.3443C42.9438 20.9448 43.3176 21.4905 43.7889 21.9502C44.2602 22.4098 44.8198 22.7744 45.4356 23.0232C46.0514 23.272 46.7114 23.4 47.3779 23.4C48.724 23.4 50.015 22.8785 50.9669 21.9502C51.9187 21.0219 52.4535 19.7628 52.4535 18.45C52.4535 17.1372 51.9187 15.8781 50.9669 14.9498C50.015 14.0215 48.724 13.5 47.3779 13.5ZM36.6628 18.45C36.6628 12.6789 41.4603 8 47.3779 8C53.2955 8 58.093 12.6789 58.093 18.45C58.093 24.2212 53.2955 28.9 47.3779 28.9C41.4603 28.9 36.6628 24.2212 36.6628 18.45ZM108.285 13.5C106.939 13.5 105.648 14.0215 104.696 14.9498C103.744 15.8781 103.209 17.1372 103.209 18.45C103.209 19.7628 103.744 21.0219 104.696 21.9502C105.648 22.8785 106.939 23.4 108.285 23.4C109.631 23.4 110.922 22.8785 111.874 21.9502C112.826 21.0219 113.36 19.7628 113.36 18.45C113.36 17.1372 112.826 15.8781 111.874 14.9498C110.922 14.0215 109.631 13.5 108.285 13.5ZM97.5698 18.45C97.5698 12.6789 102.367 8 108.285 8C114.202 8 119 12.6789 119 18.45C119 24.2212 114.202 28.9 108.285 28.9C102.367 28.9 97.5698 24.2212 97.5698 18.45ZM69.936 8C64.0185 8 59.2209 12.6789 59.2209 18.45C59.2209 24.2212 64.0185 28.9 69.936 28.9H85.7267C86.8372 28.9 87.9081 28.735 88.9153 28.4292L91.9302 30L95.1831 24.0578C96.0094 22.5451 96.4417 20.8575 96.4419 19.1436V18.45C96.4419 12.6789 91.6443 8 85.7267 8H69.936ZM90.8023 18.45C90.8023 17.1372 90.2676 15.8781 89.3157 14.9498C88.3639 14.0215 87.0729 13.5 85.7267 13.5H69.936C69.2695 13.5 68.6095 13.628 67.9937 13.8768C67.3779 14.1256 66.8184 14.4902 66.3471 14.9498C65.8758 15.4095 65.5019 15.9552 65.2468 16.5557C64.9917 17.1563 64.8605 17.8 64.8605 18.45C64.8605 19.1 64.9917 19.7437 65.2468 20.3443C65.5019 20.9448 65.8758 21.4905 66.3471 21.9502C66.8184 22.4098 67.3779 22.7744 67.9937 23.0232C68.6095 23.272 69.2695 23.4 69.936 23.4H85.7267C87.0661 23.4 88.3511 22.8838 89.3018 21.9638C90.2526 21.0438 90.7919 19.7946 90.8023 18.4885V18.45Z" fill="#0C0C0C"/>
<path d="M121 9.5C121 9.89782 120.842 10.2794 120.561 10.5607C120.279 10.842 119.898 11 119.5 11C119.102 11 118.721 10.842 118.439 10.5607C118.158 10.2794 118 9.89782 118 9.5C118 9.10218 118.158 8.72064 118.439 8.43934C118.721 8.15804 119.102 8 119.5 8C119.898 8 120.279 8.15804 120.561 8.43934C120.842 8.72064 121 9.10218 121 9.5Z" fill="#0C0C0C"/>
</g>
<defs>
<clipPath id="clip0_307_3227">
<rect width="99" height="22" fill="white" transform="translate(22 8)"/>
</clipPath>
</defs>
</svg>
