<svg width="142" height="38" viewBox="0 0 142 38" fill="none" xmlns="http://www.w3.org/2000/svg">
<g clip-path="url(#clip0_307_3258)">
<path d="M93.9999 3.275C93.9999 3.61315 93.8653 3.93745 93.6256 4.17656C93.386 4.41567 93.061 4.55 92.7221 4.55C92.3832 4.55 92.0582 4.41567 91.8186 4.17656C91.579 3.93745 91.4443 3.61315 91.4443 3.275C91.4443 2.93685 91.579 2.61255 91.8186 2.37344C92.0582 2.13433 92.3832 2 92.7221 2C93.061 2 93.386 2.13433 93.6256 2.37344C93.8653 2.61255 93.9999 2.93685 93.9999 3.275Z" fill="#0C0C0C"/>
<path fill-rule="evenodd" clip-rule="evenodd" d="M59.713 35.8289C53.244 35.8289 48 30.7271 48 24.4336V2.84961H52.2593V24.4336C52.2593 26.3568 53.0446 28.2013 54.4424 29.5612C55.8402 30.9211 57.7361 31.6851 59.713 31.6851C63.8811 31.6851 67.1667 28.5599 67.1667 24.6043H71.4259V30.8199C71.4259 31.0947 71.5381 31.3582 71.7378 31.5524C71.9375 31.7467 72.2083 31.8559 72.4907 31.8559C72.7731 31.8559 73.044 31.7467 73.2437 31.5524C73.4434 31.3582 73.5556 31.0947 73.5556 30.8199V23.4648C72.7819 23.6184 71.9829 23.6027 71.2162 23.4188C70.4496 23.2349 69.7346 22.8875 69.1231 22.4016C68.5115 21.9157 68.0187 21.3035 67.6803 20.6095C67.342 19.9154 67.1665 19.1568 67.1667 18.3887V8.0293C67.1667 6.65556 67.7276 5.33808 68.7261 4.3667C69.7245 3.39532 71.0787 2.84961 72.4907 2.84961C73.9028 2.84961 75.257 3.39532 76.2554 4.3667C77.2539 5.33808 77.8148 6.65556 77.8148 8.0293V30.8199C77.8148 31.0947 77.927 31.3582 78.1267 31.5524C78.3264 31.7467 78.5972 31.8559 78.8796 31.8559C79.162 31.8559 79.4329 31.7467 79.6326 31.5524C79.8323 31.3582 79.9444 31.0947 79.9444 30.8199V8.0293C79.9444 6.65556 80.5054 5.33808 81.5038 4.3667C82.5023 3.39532 83.8565 2.84961 85.2685 2.84961C86.6805 2.84961 88.0347 3.39532 89.0332 4.3667C90.0317 5.33808 90.5926 6.65556 90.5926 8.0293V30.8199C90.5926 31.7818 90.3173 32.7248 89.7974 33.543C89.2776 34.3613 88.5339 35.0226 87.6495 35.4528C86.7652 35.883 85.7751 36.0651 84.7904 35.9787C83.8056 35.8923 82.8651 35.5408 82.0741 34.9637C81.1533 35.6376 80.0319 36.0013 78.8796 35.9996C77.7274 36.0013 76.6059 35.6376 75.6852 34.9637C75.0444 35.4312 74.3035 35.752 73.5176 35.9023C72.7317 36.0526 71.921 36.0285 71.146 35.8318C70.371 35.635 69.6516 35.2707 69.0414 34.766C68.4312 34.2613 67.9459 33.6291 67.6216 32.9167C65.5294 34.7374 62.7464 35.8289 59.713 35.8289ZM85.2685 31.8559C84.6807 31.8559 84.2037 31.3918 84.2037 30.8199V8.0293C84.2037 7.75455 84.3159 7.49105 84.5156 7.29678C84.7153 7.1025 84.9861 6.99336 85.2685 6.99336C85.5509 6.99336 85.8218 7.1025 86.0215 7.29678C86.2211 7.49105 86.3333 7.75455 86.3333 8.0293V30.8199C86.3333 31.3918 85.8563 31.8559 85.2685 31.8559ZM73.5556 18.3887C73.5556 18.6634 73.4434 18.9269 73.2437 19.1212C73.044 19.3155 72.7731 19.4246 72.4907 19.4246C72.2083 19.4246 71.9375 19.3155 71.7378 19.1212C71.5381 18.9269 71.4259 18.6634 71.4259 18.3887V8.0293C71.4259 7.75455 71.5381 7.49105 71.7378 7.29678C71.9375 7.1025 72.2083 6.99336 72.4907 6.99336C72.7731 6.99336 73.044 7.1025 73.2437 7.29678C73.4434 7.49105 73.5556 7.75455 73.5556 8.0293V18.3887Z" fill="#0C0C0C"/>
<path fill-rule="evenodd" clip-rule="evenodd" d="M54.8148 24.8188C54.8148 26.2061 55.3533 27.5366 56.3118 28.5176C57.2703 29.4985 58.5704 30.0496 59.9259 30.0496C61.2815 30.0496 62.5815 29.4985 63.54 28.5176C64.4986 27.5366 65.037 26.2061 65.037 24.8188V8.08038C65.037 6.69309 64.4986 5.36263 63.54 4.38167C62.5815 3.40071 61.2815 2.84961 59.9259 2.84961C58.5704 2.84961 57.2703 3.40071 56.3118 4.38167C55.3533 5.36263 54.8148 6.69309 54.8148 8.08038V24.8188ZM59.9259 25.865C59.3617 25.865 58.9037 25.3963 58.9037 24.8188V8.08038C58.9037 7.80292 59.0114 7.53683 59.2031 7.34064C59.3948 7.14444 59.6548 7.03422 59.9259 7.03422C60.197 7.03422 60.457 7.14444 60.6488 7.34064C60.8405 7.53683 60.9482 7.80292 60.9482 8.08038V24.8188C60.9482 25.3963 60.4902 25.865 59.9259 25.865Z" fill="#0C0C0C"/>
</g>
<defs>
<clipPath id="clip0_307_3258">
<rect width="46" height="34" fill="white" transform="translate(48 2)"/>
</clipPath>
</defs>
</svg>
