<svg width="105" height="25" viewBox="0 0 105 25" fill="none" xmlns="http://www.w3.org/2000/svg">
<path d="M12.8025 12.628H10.5665V9.469H12.8025C12.8892 9.469 12.9867 9.47333 13.095 9.482C13.2033 9.48633 13.303 9.5015 13.394 9.5275C13.654 9.5925 13.8577 9.70733 14.005 9.872C14.1567 10.0367 14.2628 10.2252 14.3235 10.4375C14.3885 10.6455 14.421 10.8492 14.421 11.0485C14.421 11.2478 14.3885 11.4515 14.3235 11.6595C14.2628 11.8675 14.1567 12.0538 14.005 12.2185C13.8577 12.3832 13.654 12.498 13.394 12.563C13.303 12.589 13.2033 12.6063 13.095 12.615C12.9867 12.6237 12.8892 12.628 12.8025 12.628Z" fill="#0C0C0C"/>
<path fill-rule="evenodd" clip-rule="evenodd" d="M24 0.5H0V24.5H24V0.5ZM9 8V17.36H10.5665V14.0905H12.8675C12.9542 14.0905 13.069 14.0862 13.212 14.0775C13.3593 14.0688 13.4937 14.0558 13.615 14.0385C14.1523 13.9562 14.5965 13.7763 14.9475 13.499C15.3028 13.2217 15.5672 12.8728 15.7405 12.4525C15.9138 12.0278 16.0005 11.5598 16.0005 11.0485C16.0005 10.5328 15.9138 10.0648 15.7405 9.6445C15.5715 9.21983 15.3093 8.86883 14.954 8.5915C14.603 8.31417 14.1567 8.13433 13.615 8.052C13.4937 8.03033 13.3615 8.01733 13.2185 8.013C13.0755 8.00433 12.9585 8 12.8675 8H9Z" fill="#0C0C0C"/>
<path d="M66.8025 12.628H64.5665V9.469H66.8025C66.8892 9.469 66.9867 9.47333 67.095 9.482C67.2033 9.48633 67.303 9.5015 67.394 9.5275C67.654 9.5925 67.8577 9.70733 68.005 9.872C68.1567 10.0367 68.2628 10.2252 68.3235 10.4375C68.3885 10.6455 68.421 10.8492 68.421 11.0485C68.421 11.2478 68.3885 11.4515 68.3235 11.6595C68.2628 11.8675 68.1567 12.0538 68.005 12.2185C67.8577 12.3832 67.654 12.498 67.394 12.563C67.303 12.589 67.2033 12.6063 67.095 12.615C66.9867 12.6237 66.8892 12.628 66.8025 12.628Z" fill="#0C0C0C"/>
<path fill-rule="evenodd" clip-rule="evenodd" d="M78 0.5H54V24.5H78V0.5ZM63 8V17.36H64.5665V14.0905H66.8675C66.9542 14.0905 67.069 14.0862 67.212 14.0775C67.3593 14.0688 67.4937 14.0558 67.615 14.0385C68.1523 13.9562 68.5965 13.7763 68.9475 13.499C69.3028 13.2217 69.5672 12.8728 69.7405 12.4525C69.9138 12.0278 70.0005 11.5598 70.0005 11.0485C70.0005 10.5328 69.9138 10.0648 69.7405 9.6445C69.5715 9.21983 69.3093 8.86883 68.954 8.5915C68.603 8.31417 68.1567 8.13433 67.615 8.052C67.4937 8.03033 67.3615 8.01733 67.2185 8.013C67.0755 8.00433 66.9585 8 66.8675 8H63Z" fill="#0C0C0C"/>
<path fill-rule="evenodd" clip-rule="evenodd" d="M51 0.5H27V24.5H51V0.5ZM38 8V17.36H39.5665V8H38Z" fill="#0C0C0C"/>
<path fill-rule="evenodd" clip-rule="evenodd" d="M105 0.5H81V24.5H105V0.5ZM90.7 8V17.36H96.4005V15.891H92.2664V8H90.7Z" fill="#0C0C0C"/>
</svg>
