<svg width="24" height="24" viewBox="0 0 24 24" fill="none" xmlns="http://www.w3.org/2000/svg">
<path fill-rule="evenodd" clip-rule="evenodd" d="M2.55413 17.351L1 23L6.8068 21.4841C8.40678 22.3526 10.208 22.8104 12.0412 22.8112H12.0459C18.083 22.8112 22.9973 17.9202 23 11.9097C23.001 8.99678 21.863 6.25782 19.7947 4.19723C17.7263 2.13664 14.9761 1.00148 12.0461 1C6.00807 1 1.09454 5.89011 1.09201 11.901C1.08969 13.814 1.59401 15.6939 2.55413 17.351ZM8.69244 6.8729C8.88732 6.88075 9.10319 6.88994 9.30835 7.34362C9.44808 7.65316 9.683 8.22955 9.87064 8.68992C10.0097 9.03103 10.1227 9.30845 10.1519 9.36642C10.2204 9.50263 10.2658 9.6621 10.1747 9.84366C10.1607 9.87157 10.1477 9.89787 10.1354 9.92298C10.0675 10.0612 10.0174 10.1633 9.90132 10.2979C9.85496 10.3517 9.80704 10.4097 9.75916 10.4677C9.66542 10.5811 9.57187 10.6943 9.49057 10.7752C9.35331 10.9109 9.21038 11.0586 9.37028 11.3311C9.53017 11.6037 10.0794 12.4956 10.893 13.2179C11.7687 13.9952 12.5292 14.3234 12.9141 14.4896C12.9889 14.5219 13.0495 14.548 13.094 14.5701C13.3679 14.7063 13.5274 14.6835 13.6871 14.5017C13.8469 14.3198 14.3708 13.7064 14.5534 13.4337C14.7361 13.1609 14.9185 13.2061 15.1693 13.2972C15.4202 13.3882 16.7656 14.0473 17.0395 14.1836C17.0934 14.2104 17.1438 14.2346 17.1904 14.257C17.3808 14.3484 17.5094 14.4101 17.5643 14.5017C17.6327 14.6156 17.6325 15.1608 17.4046 15.797C17.1766 16.4333 16.0593 17.0471 15.5573 17.0924C15.509 17.0968 15.4609 17.1024 15.4115 17.1082C14.9476 17.1624 14.3623 17.2309 12.2729 16.4106C9.69947 15.4004 8.00333 12.8956 7.65527 12.3816C7.62705 12.34 7.6077 12.3114 7.59745 12.2978L7.5942 12.2934C7.446 12.0961 6.47998 10.8102 6.47998 9.4798C6.47998 8.22561 7.09907 7.5679 7.38416 7.26503C7.40379 7.24417 7.42185 7.22499 7.438 7.20741C7.68871 6.9347 7.98528 6.86653 8.1678 6.86653L8.69244 6.8729Z" fill="#04071E"/>
</svg>
