<svg width="142" height="38" viewBox="0 0 142 38" fill="none" xmlns="http://www.w3.org/2000/svg">
<g clip-path="url(#clip0_307_3207)">
<path d="M55.2802 8C52.9308 8 50.6776 8.92771 49.0163 10.579L43.5946 15.9683C41.9333 17.6196 41 19.8593 41 22.1946C41 27.0577 44.9661 31 49.8585 31C52.208 31 54.4611 30.0723 56.1224 28.4209L59.8727 24.6932C59.8728 24.6932 59.8727 24.6931 59.8727 24.6932L70.7997 13.8317C71.5931 13.0431 72.6692 12.6 73.7913 12.6C75.6698 12.6 77.2625 13.817 77.8146 15.5011L81.2632 12.0733C79.69 9.62406 76.9314 8 73.7913 8C71.4418 8 69.1887 8.92771 67.5274 10.579L52.8501 25.1683C52.0567 25.9569 50.9806 26.4 49.8585 26.4C47.5219 26.4 45.6278 24.5172 45.6278 22.1946C45.6278 21.0793 46.0735 20.0096 46.8669 19.2209L52.2886 13.8317C53.0821 13.0431 54.1582 12.6 55.2802 12.6C57.1589 12.6 58.7514 13.8171 59.3036 15.5012L62.7522 12.0734C61.179 9.62411 58.4205 8 55.2802 8Z" fill="#0C0C0C"/>
<path d="M71.2002 25.1683C70.4067 25.9569 69.3306 26.4 68.2085 26.4C66.3302 26.4 64.7377 25.1833 64.1854 23.4995L60.7369 26.9272C62.3102 29.3761 65.0686 31 68.2085 31C70.558 31 72.8112 30.0723 74.4725 28.4209L89.1498 13.8317C89.9432 13.0431 91.0194 12.6 92.1414 12.6C94.4781 12.6 96.3722 14.4828 96.3722 16.8054C96.3722 17.9207 95.9265 18.9904 95.1331 19.7791L89.7113 25.1683C88.9179 25.9569 87.8418 26.4 86.7197 26.4C84.8412 26.4 83.2486 25.1831 82.6964 23.4991L79.2479 26.9269C80.8211 29.376 83.5796 31 86.7197 31C89.0691 31 91.3223 30.0723 92.9836 28.4209L98.4054 23.0317C100.067 21.3804 101 19.1407 101 16.8054C101 11.9423 97.0339 8 92.1414 8C89.792 8 87.5388 8.92771 85.8775 10.579L71.2002 25.1683Z" fill="#0C0C0C"/>
</g>
<defs>
<clipPath id="clip0_307_3207">
<rect width="60" height="23" fill="white" transform="translate(41 8)"/>
</clipPath>
</defs>
</svg>
