<svg width="142" height="38" viewBox="0 0 142 38" fill="none" xmlns="http://www.w3.org/2000/svg">
<g clip-path="url(#clip0_307_3220)">
<path d="M77.7388 23.762H80.0917V14.9677H77.7388V23.762ZM77.7388 13.5963H80.0917V11.5049H77.7388V13.5963Z" fill="#0C0C0C"/>
<path d="M81.6079 26.6418H83.9608V22.7675H83.9951C84.4967 23.5218 85.3101 24.019 86.5554 24.019C88.8392 24.019 90.3963 22.219 90.3963 19.3733C90.3963 16.6304 88.8912 14.7275 86.5383 14.7275C85.3273 14.7275 84.4967 15.2933 83.926 16.0647H83.874V14.9675H81.6079V26.6418ZM86.0539 22.0818C84.6526 22.0818 83.9089 21.0361 83.9089 19.4418C83.9089 17.8647 84.4967 16.6133 85.9676 16.6133C87.4208 16.6133 88.0086 17.779 88.0086 19.4418C88.0086 21.1047 87.2477 22.0818 86.0539 22.0818Z" fill="#0C0C0C"/>
<path d="M95.0895 24.019C97.3041 24.019 98.8265 22.9561 98.8265 21.1904C98.8265 19.1333 97.183 18.7218 95.695 18.4133C94.432 18.1561 93.2558 18.0875 93.2558 17.3333C93.2558 16.699 93.8613 16.3561 94.7782 16.3561C95.7818 16.3561 96.3873 16.699 96.4907 17.6418H98.6186C98.446 15.8761 97.1482 14.7275 94.813 14.7275C92.7886 14.7275 91.1971 15.6361 91.1971 17.539C91.1971 19.459 92.7543 19.8875 94.3457 20.1961C95.5567 20.4361 96.681 20.5218 96.681 21.3618C96.681 21.979 96.0931 22.3733 95.0552 22.3733C93.9996 22.3733 93.273 21.9275 93.1176 20.9161H90.9377C91.076 22.7847 92.5121 24.019 95.0895 24.019Z" fill="#0C0C0C"/>
<path d="M107.759 23.7621V14.9678H105.406V20.0421C105.406 21.2078 104.732 22.0306 103.625 22.0306C102.621 22.0306 102.154 21.4649 102.154 20.4364V14.9678H99.8185V20.8306C99.8185 22.7506 100.926 24.0021 102.898 24.0021C104.144 24.0021 104.836 23.5392 105.441 22.7335H105.493V23.7621H107.759Z" fill="#0C0C0C"/>
<path d="M109.281 23.7618H111.634V18.6533C111.634 17.4875 112.274 16.7333 113.226 16.7333C114.091 16.7333 114.592 17.2475 114.592 18.2418V23.7618H116.945V18.6533C116.945 17.4875 117.551 16.7333 118.537 16.7333C119.402 16.7333 119.904 17.2475 119.904 18.2418V23.7618H122.256V17.8475C122.256 15.9275 121.201 14.7275 119.332 14.7275C118.208 14.7275 117.274 15.3104 116.668 16.2704H116.634C116.201 15.3447 115.302 14.7275 114.177 14.7275C112.949 14.7275 112.084 15.3447 111.6 16.1504H111.548V14.9675H109.281V23.7618Z" fill="#0C0C0C"/>
<path d="M16.4159 23.762H18.7687V11.5049H16.4159V23.762Z" fill="#0C0C0C"/>
<path d="M24.5217 24.019C27.2724 24.019 29.1581 21.9961 29.1581 19.3733C29.1581 16.7504 27.2724 14.7275 24.5217 14.7275C21.7709 14.7275 19.8852 16.7504 19.8852 19.3733C19.8852 21.9961 21.7709 24.019 24.5217 24.019ZM24.5217 22.2361C23.0685 22.2361 22.2726 21.0875 22.2726 19.3733C22.2726 17.659 23.0685 16.4933 24.5217 16.4933C25.9576 16.4933 26.7707 17.659 26.7707 19.3733C26.7707 21.0875 25.9576 22.2361 24.5217 22.2361Z" fill="#0C0C0C"/>
<path d="M34.1616 26.7618C35.4764 26.7618 36.6182 26.4533 37.3621 25.7675C38.0195 25.1675 38.4174 24.3275 38.4174 23.0933V14.9675H36.1511V15.8933H36.1165C35.5802 15.1561 34.7671 14.7275 33.6599 14.7275C31.4109 14.7275 29.8193 16.4075 29.8193 19.0304C29.8193 21.6875 31.7569 23.2304 33.7291 23.2304C34.8536 23.2304 35.5283 22.7847 36.0473 22.2018H36.0992V23.1618C36.0992 24.3618 35.4591 24.9961 34.127 24.9961C33.0371 24.9961 32.5354 24.5675 32.3451 24.019H30.0096C30.2518 25.7333 31.7396 26.7618 34.1616 26.7618ZM34.127 21.3618C32.916 21.3618 32.1202 20.4875 32.1202 18.9961C32.1202 17.5218 32.916 16.5961 34.1097 16.5961C35.5283 16.5961 36.2203 17.6933 36.2203 18.979C36.2203 20.2818 35.6148 21.3618 34.127 21.3618Z" fill="#0C0C0C"/>
<path d="M44.1363 24.019C46.887 24.019 48.7728 21.9961 48.7728 19.3733C48.7728 16.7504 46.887 14.7275 44.1363 14.7275C41.3856 14.7275 39.4999 16.7504 39.4999 19.3733C39.4999 21.9961 41.3856 24.019 44.1363 24.019ZM44.1363 22.2361C42.6831 22.2361 41.8873 21.0875 41.8873 19.3733C41.8873 17.659 42.6831 16.4933 44.1363 16.4933C45.5722 16.4933 46.3854 17.659 46.3854 19.3733C46.3854 21.0875 45.5722 22.2361 44.1363 22.2361Z" fill="#0C0C0C"/>
<path d="M123.111 13.5239C123.111 13.1294 123.434 12.8096 123.832 12.8096H125.274C125.672 12.8096 125.995 13.1294 125.995 13.5239C125.995 13.9183 125.672 14.2381 125.274 14.2381H123.832C123.434 14.2381 123.111 13.9183 123.111 13.5239Z" fill="#0C0C0C"/>
<path fill-rule="evenodd" clip-rule="evenodd" d="M63.0415 9C68.6148 9 73.1334 13.4772 73.1334 19C73.1334 24.5229 68.6148 29 63.0415 29C57.468 29 52.9498 24.5229 52.9498 19C52.9498 13.4772 57.468 9 63.0415 9ZM62.6767 9.7483C61.5254 9.90885 60.4292 10.8255 59.5782 12.3587C59.3313 12.8034 59.1086 13.2947 58.9145 13.8252C60.0717 13.5371 61.3428 13.3672 62.6767 13.3409V9.7483ZM58.0616 14.0654C58.303 13.3148 58.5982 12.6242 58.939 12.0103C59.3608 11.2503 59.8614 10.594 60.4255 10.0899C57.3582 10.9726 54.9405 13.3684 54.0496 16.4078C54.5583 15.8489 55.2207 15.3528 55.9877 14.9348C56.6072 14.5972 57.3041 14.3046 58.0616 14.0654ZM57.8192 14.9106C57.5284 16.0572 57.357 17.3167 57.3305 18.6385H53.7049C53.8669 17.4977 54.792 16.4114 56.3393 15.5682C56.7881 15.3236 57.2839 15.1029 57.8192 14.9106ZM58.0602 18.6385C58.0903 17.196 58.2999 15.8417 58.6467 14.6451C59.8542 14.3015 61.221 14.0938 62.6767 14.064V15.6254C62.1337 17.0031 61.026 18.1006 59.6356 18.6385H58.0602ZM57.3305 19.3615H53.7049C53.8669 20.5023 54.792 21.5885 56.3393 22.4318C56.7881 22.6764 57.2839 22.8971 57.8192 23.0894C57.5284 21.9428 57.357 20.6833 57.3305 19.3615ZM58.6467 23.3549C58.2999 22.1583 58.0903 20.804 58.0602 19.3615H59.6356C61.026 19.8994 62.1337 20.9969 62.6767 22.3746V23.9361C61.221 23.9062 59.8542 23.6985 58.6467 23.3549ZM58.0616 23.9346C57.3041 23.6954 56.6072 23.4028 55.9877 23.0652C55.2207 22.6472 54.5583 22.1511 54.0496 21.5921C54.9405 24.6316 57.3582 27.0274 60.4255 27.9101C59.8614 27.406 59.3608 26.7497 58.939 25.9897C58.5982 25.3758 58.303 24.6852 58.0616 23.9346ZM62.6767 28.2517C61.5254 28.0911 60.4292 27.1745 59.5782 25.6413C59.3313 25.1966 59.1086 24.7052 58.9145 24.1748C60.0717 24.4629 61.3428 24.6328 62.6767 24.659V28.2517ZM65.6574 27.9101C66.2215 27.406 66.7221 26.7497 67.144 25.9897C67.4846 25.3758 67.7802 24.6852 68.0214 23.9346C68.7788 23.6954 69.4757 23.4028 70.0953 23.0652C70.8623 22.6472 71.5248 22.1511 72.0334 21.5921C71.1423 24.6316 68.7248 27.0274 65.6574 27.9101ZM67.1687 24.1748C66.9744 24.7052 66.7514 25.1966 66.5046 25.6413C65.6538 27.1745 64.5575 28.0911 63.4062 28.2517V24.659C64.7402 24.6328 66.0113 24.4629 67.1687 24.1748ZM68.2636 23.0894C68.799 22.8971 69.295 22.6764 69.7436 22.4318C71.2912 21.5886 72.2161 20.5023 72.378 19.3615H68.7526C68.7258 20.6833 68.5543 21.9428 68.2636 23.0894ZM68.0229 19.3615C67.9927 20.804 67.7833 22.1583 67.4361 23.3549C66.2287 23.6985 64.862 23.9062 63.4062 23.9361V22.3757C63.9492 20.9975 65.0571 19.8996 66.4478 19.3615H68.0229ZM68.7526 18.6385H72.378C72.2161 17.4977 71.2912 16.4114 69.7436 15.5682C69.295 15.3236 68.799 15.1029 68.2636 14.9106C68.5543 16.0572 68.7258 17.3167 68.7526 18.6385ZM67.4361 14.6451C67.7833 15.8417 67.9927 17.196 68.0229 18.6385H66.4479C65.0571 18.1004 63.9492 17.0024 63.4062 15.6242V14.064C64.862 14.0938 66.2287 14.3015 67.4361 14.6451ZM68.0214 14.0654C68.7788 14.3046 69.4757 14.5972 70.0953 14.9348C70.8623 15.3528 71.5248 15.8489 72.0334 16.4078C71.1423 13.3684 68.7248 10.9726 65.6574 10.0899C66.2215 10.594 66.7221 11.2503 67.144 12.0103C67.4846 12.6242 67.7802 13.3148 68.0214 14.0654ZM63.4062 9.7483C64.5575 9.90885 65.6538 10.8255 66.5046 12.3587C66.7514 12.8034 66.9744 13.2947 67.1687 13.8252C66.0113 13.5371 64.7402 13.3672 63.4062 13.3409V9.7483Z" fill="#0C0C0C"/>
</g>
<defs>
<clipPath id="clip0_307_3220">
<rect width="110" height="20" fill="white" transform="translate(16 9)"/>
</clipPath>
</defs>
</svg>
