<svg width="142" height="38" viewBox="0 0 142 38" fill="none" xmlns="http://www.w3.org/2000/svg">
<g clip-path="url(#clip0_307_3190)">
<path d="M73.4234 30.5061C73.4575 27.0183 72.5733 24.182 71.4485 24.1709C70.3236 24.16 69.3841 26.9785 69.35 30.4663C69.3159 33.9542 70.2002 36.7906 71.325 36.8015C72.4498 36.8125 73.3893 33.994 73.4234 30.5061Z" fill="#0C0C0C"/>
<path d="M66.8997 29.7136C68.8142 26.798 69.6039 23.9338 68.6636 23.3164C67.7233 22.699 65.409 24.5621 63.4946 27.4777C61.5801 30.3934 60.7903 33.2574 61.7306 33.8749C62.671 34.4924 64.9852 32.6293 66.8997 29.7136Z" fill="#0C0C0C"/>
<path d="M61.8322 25.5317C65.0191 24.1141 67.232 22.1317 66.7748 21.1039C66.3177 20.0761 63.3636 20.3921 60.1766 21.8097C56.9896 23.2273 54.7767 25.2096 55.2339 26.2375C55.6911 27.2653 58.6452 26.9493 61.8322 25.5317Z" fill="#0C0C0C"/>
<path d="M66.3923 18.2202C66.5635 17.1084 63.9075 15.777 60.4601 15.2464C57.0127 14.7157 54.0793 15.1869 53.9082 16.2987C53.737 17.4105 56.393 18.7419 59.8404 19.2725C63.2878 19.8032 66.2212 19.332 66.3923 18.2202Z" fill="#0C0C0C"/>
<path d="M67.6301 15.5722C68.375 14.7294 66.8602 12.1735 64.2466 9.86368C61.6331 7.55382 58.9104 6.36461 58.1655 7.20749C57.4206 8.05039 58.9354 10.6062 61.549 12.9161C64.1626 15.2259 66.8852 16.4151 67.6301 15.5722Z" fill="#0C0C0C"/>
<path d="M70.0951 14.0234C71.1775 13.7171 71.285 10.748 70.3353 7.3918C69.3856 4.03557 67.7382 1.56311 66.6559 1.8694C65.5735 2.17568 65.4659 5.14473 66.4156 8.50099C67.3653 11.8571 69.0127 14.3297 70.0951 14.0234Z" fill="#0C0C0C"/>
<path d="M76.7884 8.60591C77.8042 5.26906 77.7552 2.29846 76.679 1.97089C75.6029 1.64332 73.9071 4.08281 72.8914 7.41966C71.8757 10.7565 71.9246 13.7271 73.0008 14.0547C74.077 14.3822 75.7727 11.9428 76.7884 8.60591Z" fill="#0C0C0C"/>
<path d="M81.5711 13.1147C84.2293 10.8564 85.7939 8.33065 85.0655 7.47339C84.3372 6.61611 81.5918 7.75191 78.9337 10.0102C76.2754 12.2685 74.711 14.7942 75.4393 15.6515C76.1676 16.5088 78.9129 15.373 81.5711 13.1147Z" fill="#0C0C0C"/>
<path d="M83.1524 19.496C86.6097 19.0335 89.2913 17.7547 89.1421 16.6397C88.993 15.5248 86.0695 14.9959 82.6122 15.4584C79.1551 15.9209 76.4733 17.1997 76.6225 18.3147C76.7717 19.4296 79.6952 19.9586 83.1524 19.496Z" fill="#0C0C0C"/>
<path d="M87.6123 26.5548C88.0897 25.5362 85.9163 23.5106 82.7579 22.0304C79.5996 20.5503 76.6522 20.1761 76.1749 21.1947C75.6975 22.2133 77.8709 24.2389 81.0293 25.7191C84.1876 27.1992 87.135 27.5734 87.6123 26.5548Z" fill="#0C0C0C"/>
<path d="M80.9688 34.0706C81.9211 33.4718 81.188 30.5927 79.3314 27.6398C77.4748 24.687 75.1977 22.7787 74.2454 23.3774C73.2931 23.9762 74.0262 26.8554 75.8828 29.8082C77.7394 32.761 80.0165 34.6694 80.9688 34.0706Z" fill="#0C0C0C"/>
</g>
<defs>
<clipPath id="clip0_307_3190">
<rect width="142" height="38" fill="white"/>
</clipPath>
</defs>
</svg>
